# xmcd
#
# Track frame offsets:
#	150
#	50130
#	74200
#	97759
#	142109
#	168143
#	210612
#	270075
#
# Disc length: 3853 seconds
#
# Revision: 1
# Processed by: cddbd v1.5.2PL0 Copyright (c) Steve Scherf et al.
# Submitted via: audiograbber 1.83.01
#
DISCID=720f0b08
DTITLE=Dire Straits - Live in Nimes 92
DYEAR=1992
DGENRE=Rock
TTITLE0=Calling Elvis
TTITLE1=Walk of Life
TTITLE2=Heavy Fuel
TTITLE3=Romeo and Juliet
TTITLE4=The Bug
TTITLE5=Private Investigation
TTITLE6=Sultans of Swing
TTITLE7=Fade to Black
EXTD=
EXTT0=
EXTT1=
EXTT2=
EXTT3=
EXTT4=
EXTT5=
EXTT6=
EXTT7=
PLAYORDER=
